{
	"buffers":[{
		"uri":"data:application/octet-stream;base64,",
		"byteLength":69672
	},
	{
		"uri":"data:application/octet-stream;base64,",
		"byteLength":83016
	},
	{
		"uri":"data:application/octet-stream;base64,",
		"byteLength":571140
	},
	{
		"uri":"data:application/octet-stream;base64,",
		"byteLength":16848
	},
	{
		"uri":"data:application/octet-stream;base64,",
		"byteLength":38040
	}],
	"asset":{
		"version":"2.0",
		"generator":"Created using the official Cinema 4D glTF Exporter 1.000x284978"
	},
	"scenes":[{
		"nodes":[0]
	}],
	"nodes":[{
		"name":"globe_iss_group",
		"children":[1,
		5]
	},
	{
		"name":"globe",
		"children":[2,
		3,
		4]
	},
	{
		"name":"globe_grid",
		"translation":[0.0,
		0.0,
		0.0],
		"rotation":[0.0,
		-0.7071067690849304,
		0.0,
		0.7071067690849304],
		"scale":[1.0,
		1.0,
		1.0],
		"mesh":0
	},
	{
		"name":"globe_base",
		"translation":[0.0,
		0.0,
		0.0],
		"rotation":[0.0,
		-0.7071067690849304,
		0.0,
		0.7071067690849304],
		"scale":[1.0,
		1.0,
		1.0],
		"mesh":1
	},
	{
		"name":"globe_shoreline",
		"translation":[-6438.0,
		90.30538940429688,
		1121.151123046875],
		"rotation":[0.0,
		-0.7071067690849304,
		0.0,
		0.7071067690849304],
		"scale":[1.0,
		1.0,
		1.0],
		"mesh":2
	},
	{
		"name":"iss_rot",
		"translation":[0.0,
		0.0,
		0.0],
		"rotation":[0.08125446736812592,
		-0.7759128212928772,
		-0.10215086489915848,
		-0.6171889305114746],
		"children":[6],
		"scale":[1.0,
		1.0,
		1.0]
	},
	{
		"name":"iss_group",
		"translation":[0.0,
		0.0,
		-8057.50830078125],
		"rotation":[0.0,
		0.0,
		0.0,
		-1.0],
		"children":[7,
		8],
		"scale":[1.0,
		1.0,
		1.0]
	},
	{
		"name":"iss_solar_panels",
		"translation":[-6.719212182091858e-14,
		-9.094947017729282e-13,
		9.094947017729282e-13],
		"rotation":[0.7071067690849304,
		0.0,
		0.0,
		-0.7071067690849304],
		"scale":[1.0,
		1.0,
		1.0],
		"mesh":3
	},
	{
		"name":"iss_main",
		"translation":[-6.719212182091858e-14,
		-9.094947017729282e-13,
		9.094947017729282e-13],
		"rotation":[0.7071067690849304,
		0.0,
		0.0,
		-0.7071067690849304],
		"scale":[1.0,
		1.0,
		1.0],
		"mesh":4
	}],
	"meshes":[{
		"name":"globe_grid",
		"primitives":[{
			"attributes":{
				"POSITION":1,
				"NORMAL":2
			},
			"indices":0,
			"material":0
		}]
	},
	{
		"name":"globe_base",
		"primitives":[{
			"attributes":{
				"POSITION":4,
				"NORMAL":5,
				"TEXCOORD_0":6
			},
			"indices":3,
			"material":1
		}]
	},
	{
		"name":"globe_shoreline",
		"primitives":[{
			"attributes":{
				"POSITION":8,
				"NORMAL":9
			},
			"indices":7,
			"material":2
		}]
	},
	{
		"name":"iss_solar_panels",
		"primitives":[{
			"attributes":{
				"POSITION":11,
				"NORMAL":12
			},
			"indices":10,
			"material":3
		}]
	},
	{
		"name":"iss_main",
		"primitives":[{
			"attributes":{
				"POSITION":14,
				"NORMAL":15
			},
			"indices":13,
			"material":4
		}]
	}],
	"accessors":[{
		"bufferView":0,
		"type":"SCALAR",
		"componentType":5123,
		"count":8340,
		"byteOffset":0,
		"min":[0],
		"max":[2207]
	},
	{
		"bufferView":1,
		"type":"VEC3",
		"componentType":5126,
		"count":2208,
		"byteOffset":0,
		"min":[-6592.49609375,
		-6582.88037109375,
		-6592.49609375],
		"max":[6592.49609375,
		6582.88037109375,
		6592.49609375]
	},
	{
		"bufferView":1,
		"type":"VEC3",
		"componentType":5126,
		"count":2208,
		"byteOffset":12,
		"min":[-0.9995713829994202,
		-0.9998102188110352,
		-0.9995714426040649],
		"max":[0.9995713829994202,
		0.999843180179596,
		0.9995714426040649]
	},
	{
		"bufferView":2,
		"type":"SCALAR",
		"componentType":5123,
		"count":10404,
		"byteOffset":0,
		"min":[0],
		"max":[1943]
	},
	{
		"bufferView":3,
		"type":"VEC3",
		"componentType":5126,
		"count":1944,
		"byteOffset":0,
		"min":[-6351.6796875,
		-6351.6796875,
		-6351.6796875],
		"max":[6351.6796875,
		6351.6796875,
		6351.6796875]
	},
	{
		"bufferView":3,
		"type":"VEC3",
		"componentType":5126,
		"count":1944,
		"byteOffset":12,
		"min":[-0.9966338872909546,
		-0.9966338872909546,
		-0.9966338872909546],
		"max":[0.9966338872909546,
		0.9966338872909546,
		0.9966338872909546]
	},
	{
		"bufferView":3,
		"type":"VEC2",
		"componentType":5126,
		"count":1944,
		"byteOffset":24,
		"min":[0.0015575885772705079,
		0.0015575885772705079],
		"max":[0.66510009765625,
		0.9984283447265625]
	},
	{
		"bufferView":4,
		"type":"SCALAR",
		"componentType":5123,
		"count":95190,
		"byteOffset":0,
		"min":[0],
		"max":[15864]
	},
	{
		"bufferView":5,
		"type":"VEC3",
		"componentType":5126,
		"count":15865,
		"byteOffset":0,
		"min":[-7555.71728515625,
		-6421.68017578125,
		-12811.0634765625],
		"max":[4389.2109375,
		6330.80029296875,
		-28.873567581176759]
	},
	{
		"bufferView":5,
		"type":"VEC3",
		"componentType":5126,
		"count":15865,
		"byteOffset":12,
		"min":[-0.9998756051063538,
		-0.9999473094940186,
		-0.9998687505722046],
		"max":[0.9995173215866089,
		0.9999889135360718,
		0.9998277425765991]
	},
	{
		"bufferView":6,
		"type":"SCALAR",
		"componentType":5123,
		"count":936,
		"byteOffset":0,
		"min":[0],
		"max":[623]
	},
	{
		"bufferView":7,
		"type":"VEC3",
		"componentType":5126,
		"count":624,
		"byteOffset":0,
		"min":[-360.6531066894531,
		-304.88934326171877,
		-521.3887329101563],
		"max":[325.9654235839844,
		505.7026672363281,
		521.3887329101563]
	},
	{
		"bufferView":7,
		"type":"VEC3",
		"componentType":5126,
		"count":624,
		"byteOffset":12,
		"min":[-1.0,
		-1.0,
		-1.0],
		"max":[1.0,
		1.0,
		1.0]
	},
	{
		"bufferView":8,
		"type":"SCALAR",
		"componentType":5123,
		"count":4548,
		"byteOffset":0,
		"min":[0],
		"max":[1205]
	},
	{
		"bufferView":9,
		"type":"VEC3",
		"componentType":5126,
		"count":1206,
		"byteOffset":0,
		"min":[-391.7825622558594,
		-20.881593704223634,
		-533.057861328125],
		"max":[281.6928405761719,
		134.65895080566407,
		533.057861328125]
	},
	{
		"bufferView":9,
		"type":"VEC3",
		"componentType":5126,
		"count":1206,
		"byteOffset":12,
		"min":[-1.0,
		-1.0,
		-1.0],
		"max":[1.0,
		1.0,
		1.0]
	}],
	"bufferViews":[{
		"buffer":0,
		"byteOffset":0,
		"byteLength":16680,
		"target":34963
	},
	{
		"buffer":0,
		"byteOffset":16680,
		"byteLength":52992,
		"target":34962,
		"byteStride":24
	},
	{
		"buffer":1,
		"byteOffset":0,
		"byteLength":20808,
		"target":34963
	},
	{
		"buffer":1,
		"byteOffset":20808,
		"byteLength":62208,
		"target":34962,
		"byteStride":32
	},
	{
		"buffer":2,
		"byteOffset":0,
		"byteLength":190380,
		"target":34963
	},
	{
		"buffer":2,
		"byteOffset":190380,
		"byteLength":380760,
		"target":34962,
		"byteStride":24
	},
	{
		"buffer":3,
		"byteOffset":0,
		"byteLength":1872,
		"target":34963
	},
	{
		"buffer":3,
		"byteOffset":1872,
		"byteLength":14976,
		"target":34962,
		"byteStride":24
	},
	{
		"buffer":4,
		"byteOffset":0,
		"byteLength":9096,
		"target":34963
	},
	{
		"buffer":4,
		"byteOffset":9096,
		"byteLength":28944,
		"target":34962,
		"byteStride":24
	}],
	"images":[{
		"uri":"data:image/jpeg;base64,"
	}],
	"samplers":[{
		"magFilter":9729,
		"wrapT":10497,
		"minFilter":9729,
		"wrapS":10497
	}],
	"textures":[{
		"sampler":0,
		"source":0
	}],
	"materials":[{
		"pbrMetallicRoughness":{
			"baseColorFactor":[0.8,
			0.8,
			0.8,
			0.04999999999999993],
			"metallicFactor":1.0,
			"roughnessFactor":1.0
		},
		"emissiveFactor":[0.0,
		0.0,
		0.0],
		"alphaMode":"BLEND",
		"doubleSided":false,
		"name":"grid_mat"
	},
	{
		"pbrMetallicRoughness":{
			"baseColorTexture":{
				"index":0
			},
			"baseColorFactor":[0.8,
			0.8,
			0.8,
			1.0],
			"metallicFactor":1.0,
			"roughnessFactor":1.0
		},
		"emissiveFactor":[0.0,
		0.0,
		0.0],
		"alphaMode":"OPAQUE",
		"doubleSided":false,
		"name":"globe_base_mat"
	},
	{
		"pbrMetallicRoughness":{
			"baseColorFactor":[0.8,
			0.8,
			0.8,
			0.1499999999999999],
			"metallicFactor":1.0,
			"roughnessFactor":1.0
		},
		"emissiveFactor":[0.0,
		0.0,
		0.0],
		"alphaMode":"BLEND",
		"doubleSided":false,
		"name":"shoreline_mat"
	},
	{
		"pbrMetallicRoughness":{
			"baseColorFactor":[0.22,
			0.1892,
			0.1892,
			1.0],
			"metallicFactor":1.0,
			"roughnessFactor":1.0
		},
		"emissiveFactor":[0.0,
		0.0,
		0.0],
		"alphaMode":"OPAQUE",
		"doubleSided":false,
		"name":"iss_solar_panels"
	},
	{
		"pbrMetallicRoughness":{
			"baseColorFactor":[0.8,
			0.8,
			0.8,
			1.0],
			"metallicFactor":1.0,
			"roughnessFactor":1.0
		},
		"emissiveFactor":[0.0,
		0.0,
		0.0],
		"alphaMode":"OPAQUE",
		"doubleSided":false,
		"name":"iss_main_mat"
	}]
}